<svg width="58" height="58" viewBox="0 0 58 58" fill="none" xmlns="http://www.w3.org/2000/svg">
<path d="M53.553 25.375H50.7313C50.5705 24.7931 50.2247 24.2794 49.7461 23.9115C49.2675 23.5437 48.6822 23.3416 48.0786 23.3359H45.0664V15.9699C45.0698 15.8321 45.0365 15.6959 44.9699 15.5752C44.9033 15.4546 44.8058 15.3538 44.6874 15.2832L23.4384 3.01009C23.3187 2.94048 23.1826 2.90381 23.0441 2.90381C22.9056 2.90381 22.7695 2.94048 22.6498 3.01009L1.39422 15.2832C1.27395 15.3529 1.17419 15.4531 1.10498 15.5737C1.03577 15.6942 0.999559 15.8309 1 15.9699V40.5163C1.00001 40.6555 1.03665 40.7922 1.10625 40.9127C1.17584 41.0333 1.27594 41.1334 1.39649 41.203L22.6542 53.4761C22.7747 53.5457 22.9115 53.5823 23.0507 53.5823C23.1934 53.5824 23.3339 53.5458 23.4585 53.4761L34.6445 47.0239V51.6882C34.6434 52.1322 34.7303 52.5721 34.9003 52.9824C35.0703 53.3926 35.32 53.7651 35.6349 54.0782C35.9498 54.3913 36.3237 54.6388 36.735 54.8064C37.1462 54.974 37.5866 55.0584 38.0306 55.0547H53.553C53.9982 55.0588 54.4398 54.9749 54.8525 54.8077C55.2651 54.6404 55.6406 54.3933 55.9573 54.0804C56.2741 53.7675 56.5258 53.3951 56.698 52.9845C56.8703 52.574 56.9596 52.1334 56.9609 51.6882V28.794C56.9604 27.8893 56.6015 27.0217 55.9629 26.3809C55.3242 25.7401 54.4577 25.3785 53.553 25.375ZM48.1068 24.9219C48.412 24.9219 48.7048 25.0431 48.9207 25.259C49.1366 25.4748 49.2578 25.7676 49.2578 26.0729V26.1497C49.2578 26.455 49.1366 26.7478 48.9207 26.9636C48.7048 27.1795 48.412 27.3008 48.1068 27.3008H43.4987C43.1934 27.3008 42.9007 27.1795 42.6848 26.9636C42.4689 26.7478 42.3477 26.455 42.3477 26.1497V26.0729C42.3477 25.7676 42.4689 25.4748 42.6848 25.259C42.9007 25.0431 43.1934 24.9219 43.4987 24.9219H48.1068ZM23.0507 4.61245L31.8836 9.71214L12.2133 21.0688L3.38038 15.9691L23.0507 4.61245ZM22.2969 51.4158L2.58594 40.0584V17.3416L22.2969 28.6991V51.4158ZM23.0507 27.3257L13.7992 21.9844L33.4696 10.6278L42.7215 15.9691L23.0507 27.3257ZM34.6445 28.794V45.1927L23.8828 51.4158V28.6991L43.4805 17.3416V23.3359H43.5051C42.9014 23.3416 42.3161 23.5436 41.8375 23.9115C41.3589 24.2794 41.0131 24.7931 40.8523 25.375H38.0306C37.1282 25.3794 36.2645 25.742 35.6295 26.3832C34.9945 27.0244 34.6402 27.8916 34.6445 28.794ZM55.375 51.6882C55.3739 51.9252 55.3257 52.1596 55.2333 52.3779C55.1408 52.5961 55.0059 52.7938 54.8364 52.9595C54.6669 53.1252 54.4661 53.2555 54.2458 53.3429C54.0255 53.4303 53.79 53.4731 53.553 53.4687H38.0306C37.7948 53.4727 37.5605 53.4295 37.3416 53.3417C37.1227 53.2538 36.9235 53.1232 36.7558 52.9573C36.5881 52.7914 36.4553 52.5937 36.3651 52.3758C36.2748 52.1578 36.2291 51.924 36.2305 51.6882V28.794C36.2281 28.5554 36.2728 28.3186 36.362 28.0973C36.4512 27.876 36.5832 27.6744 36.7504 27.5041C36.9176 27.3339 37.1167 27.1983 37.3364 27.105C37.5561 27.0118 37.792 26.9629 38.0306 26.9609H40.8833C41.0533 27.5222 41.4007 28.0133 41.8734 28.3605C42.3461 28.7077 42.9186 28.8923 43.5051 28.8867H48.0786C48.665 28.8923 49.2375 28.7077 49.7102 28.3605C50.1828 28.0133 50.5302 27.5222 50.7002 26.9609H53.553C54.0372 26.964 54.5005 27.1584 54.8419 27.5019C55.1833 27.8453 55.3749 28.3098 55.375 28.794V51.6882Z" fill="black"/>
<path d="M38.963 36.8164H39.793C40.0033 36.8164 40.205 36.7329 40.3537 36.5841C40.5024 36.4354 40.5859 36.2337 40.5859 36.0234C40.5859 35.8131 40.5024 35.6114 40.3537 35.4627C40.205 35.314 40.0033 35.2305 39.793 35.2305H39.7617V33.0781H41.9488C41.9986 33.2376 42.0993 33.3763 42.2355 33.473C42.3716 33.5697 42.5358 33.6191 42.7027 33.6136C42.9133 33.6142 43.1155 33.5312 43.2649 33.3829C43.4144 33.2346 43.4989 33.033 43.5 32.8225V32.2889C43.4982 32.0773 43.413 31.875 43.2629 31.7258C43.1129 31.5766 42.91 31.4927 42.6984 31.4922H38.963C38.8589 31.4927 38.756 31.5138 38.6601 31.5541C38.5643 31.5945 38.4773 31.6533 38.4042 31.7273C38.331 31.8013 38.2732 31.889 38.234 31.9854C38.1949 32.0817 38.1751 32.1849 38.1758 32.2889V36.0243C38.1751 36.1281 38.195 36.231 38.2343 36.3271C38.2736 36.4231 38.3315 36.5105 38.4046 36.5841C38.4778 36.6577 38.5648 36.7161 38.6606 36.756C38.7564 36.7959 38.8592 36.8164 38.963 36.8164Z" fill="black"/>
<path d="M38.9688 44.0664H42.707C42.9173 44.0664 43.119 43.9829 43.2677 43.8341C43.4165 43.6854 43.5 43.4837 43.5 43.2734V39.5352C43.5 39.3248 43.4165 39.1232 43.2677 38.9744C43.119 38.8257 42.9173 38.7422 42.707 38.7422H38.9688C38.7584 38.7422 38.5567 38.8257 38.408 38.9744C38.2593 39.1232 38.1758 39.3248 38.1758 39.5352V43.2734C38.1758 43.4837 38.2593 43.6854 38.408 43.8341C38.5567 43.9829 38.7584 44.0664 38.9688 44.0664ZM39.7617 40.3281H41.9141V42.4805H39.7617V40.3281Z" fill="black"/>
<path d="M39.7931 49.7305H39.7617V47.5781H41.906C41.9101 47.7867 41.9958 47.9853 42.1446 48.1314C42.2935 48.2775 42.4937 48.3594 42.7022 48.3596C42.9108 48.3598 43.1111 48.2783 43.2603 48.1325C43.4094 47.9867 43.4955 47.7882 43.5 47.5797V46.8156C43.4992 46.6012 43.4151 46.3955 43.2656 46.2419C43.1161 46.0883 42.9127 45.9988 42.6984 45.9922H38.963C38.7502 45.9993 38.5486 46.0895 38.4015 46.2434C38.2544 46.3973 38.1733 46.6027 38.1758 46.8156V50.5511C38.1757 50.6535 38.1961 50.7548 38.2359 50.8492C38.2757 50.9435 38.3341 51.0289 38.4075 51.1003C38.4809 51.1716 38.5679 51.2275 38.6633 51.2647C38.7587 51.3018 38.8606 51.3194 38.963 51.3164H39.7931C40.0034 51.3164 40.2051 51.2329 40.3538 51.0842C40.5025 50.9354 40.5861 50.7337 40.5861 50.5234C40.5861 50.3131 40.5025 50.1114 40.3538 49.9627C40.2051 49.814 40.0034 49.7305 39.7931 49.7305Z" fill="black"/>
<path d="M44.5242 32.4655L42.2019 34.7878L41.4955 34.0812C41.4219 34.0076 41.3344 33.9492 41.2382 33.9093C41.142 33.8695 41.0389 33.849 40.9348 33.849C40.8306 33.849 40.7275 33.8695 40.6313 33.9093C40.5351 33.9492 40.4477 34.0076 40.374 34.0812C40.3004 34.1549 40.242 34.2423 40.2021 34.3385C40.1623 34.4347 40.1418 34.5379 40.1418 34.642C40.1418 34.7461 40.1623 34.8492 40.2021 34.9455C40.242 35.0417 40.3004 35.1291 40.374 35.2027L41.6413 36.4699C41.7149 36.5435 41.8024 36.602 41.8986 36.6418C41.9948 36.6817 42.0979 36.7022 42.202 36.7022C42.3062 36.7022 42.4093 36.6817 42.5055 36.6418C42.6017 36.602 42.6892 36.5435 42.7628 36.4699L45.646 33.5867C45.7947 33.4379 45.8783 33.2362 45.8783 33.0259C45.8783 32.8156 45.7947 32.6139 45.646 32.4652C45.4973 32.3165 45.2956 32.2329 45.0853 32.2329C44.875 32.2329 44.6733 32.3165 44.5245 32.4652L44.5242 32.4655Z" fill="black"/>
<path d="M44.5242 47.107L42.2019 49.4293L41.4955 48.7227C41.4219 48.6491 41.3344 48.5907 41.2382 48.5508C41.142 48.511 41.0389 48.4905 40.9348 48.4905C40.8306 48.4905 40.7275 48.511 40.6313 48.5508C40.5351 48.5907 40.4477 48.6491 40.374 48.7227C40.3004 48.7964 40.242 48.8838 40.2021 48.98C40.1623 49.0762 40.1418 49.1793 40.1418 49.2835C40.1418 49.3876 40.1623 49.4907 40.2021 49.5869C40.242 49.6832 40.3004 49.7706 40.374 49.8442L41.6413 51.1114C41.7149 51.185 41.8024 51.2434 41.8986 51.2833C41.9948 51.3231 42.0979 51.3437 42.202 51.3437C42.3062 51.3437 42.4093 51.3231 42.5055 51.2833C42.6017 51.2434 42.6892 51.185 42.7628 51.1114L45.646 48.2281C45.7947 48.0794 45.8783 47.8777 45.8783 47.6674C45.8783 47.4571 45.7947 47.2554 45.646 47.1067C45.4973 46.9579 45.2956 46.8744 45.0853 46.8744C44.875 46.8744 44.6733 46.9579 44.5245 47.1067L44.5242 47.107Z" fill="black"/>
<path d="M52.6596 33.418H47.679C47.4687 33.418 47.267 33.5015 47.1183 33.6502C46.9696 33.7989 46.8861 34.0006 46.8861 34.2109C46.8861 34.4212 46.9696 34.6229 47.1183 34.7716C47.267 34.9204 47.4687 35.0039 47.679 35.0039H52.6596C52.8699 35.0039 53.0716 34.9204 53.2203 34.7716C53.369 34.6229 53.4525 34.4212 53.4525 34.2109C53.4525 34.0006 53.369 33.7989 53.2203 33.6502C53.0716 33.5015 52.8699 33.418 52.6596 33.418Z" fill="black"/>
<path d="M52.6596 40.668H47.679C47.4687 40.668 47.267 40.7515 47.1183 40.9002C46.9696 41.0489 46.8861 41.2506 46.8861 41.4609C46.8861 41.6712 46.9696 41.8729 47.1183 42.0216C47.267 42.1704 47.4687 42.2539 47.679 42.2539H52.6596C52.8699 42.2539 53.0716 42.1704 53.2203 42.0216C53.369 41.8729 53.4525 41.6712 53.4525 41.4609C53.4525 41.2506 53.369 41.0489 53.2203 40.9002C53.0716 40.7515 52.8699 40.668 52.6596 40.668Z" fill="black"/>
<path d="M52.6596 47.918H47.679C47.4687 47.918 47.267 48.0015 47.1183 48.1502C46.9696 48.2989 46.8861 48.5006 46.8861 48.7109C46.8861 48.9212 46.9696 49.1229 47.1183 49.2716C47.267 49.4204 47.4687 49.5039 47.679 49.5039H52.6596C52.8699 49.5039 53.0716 49.4204 53.2203 49.2716C53.369 49.1229 53.4525 48.9212 53.4525 48.7109C53.4525 48.5006 53.369 48.2989 53.2203 48.1502C53.0716 48.0015 52.8699 47.918 52.6596 47.918Z" fill="black"/>
</svg>
