<svg width="29" height="30" viewBox="0 0 29 30" fill="none" xmlns="http://www.w3.org/2000/svg">
<path d="M20.2719 18.5763C20.2276 18.4152 20.1376 18.2704 20.0126 18.1595C19.8876 18.0485 19.7331 17.9763 19.5679 17.9515V13.0032H19.9991C20.0563 13.0032 20.1111 12.9805 20.1516 12.9401C20.192 12.8996 20.2147 12.8448 20.2147 12.7876V10.6316C20.2147 10.5124 20.1182 10.416 19.9991 10.416H10.5128C10.3937 10.416 10.2972 10.5124 10.2972 10.6316V12.7876C10.2972 12.8448 10.3199 12.8996 10.3603 12.9401C10.4008 12.9805 10.4556 13.0032 10.5128 13.0032H10.944V17.3152H10.7284C10.1933 17.3139 9.66918 17.4673 9.21919 17.7569V16.6684C9.21919 16.5492 9.12266 16.4528 9.00359 16.4528H7.49441C7.37534 16.4528 7.27881 16.5492 7.27881 16.6684V21.6271C7.27881 21.6843 7.30152 21.7392 7.34196 21.7796C7.38239 21.82 7.43723 21.8427 7.49441 21.8427H9.00359C9.06077 21.8427 9.11561 21.82 9.15605 21.7796C9.19648 21.7392 9.21919 21.6843 9.21919 21.6271V20.5387C9.66925 20.8281 10.1933 20.9815 10.7284 20.9803H14.2685C14.5137 20.9799 14.7579 20.9477 14.9949 20.8845L19.6628 19.6341C20.1221 19.5089 20.3942 19.0365 20.2719 18.5763ZM10.7284 10.8472H19.7835V12.572H10.7284V10.8472ZM11.3752 13.0032H19.1367V17.9886L16.6345 18.6596C16.5836 18.5383 16.5059 18.4303 16.4071 18.3435C16.3083 18.2568 16.191 18.1936 16.0642 18.1589L13.1593 17.3798C12.9957 17.3367 12.8272 17.315 12.6581 17.3152H11.3752V13.0032ZM8.788 21.4115H7.71001V16.884H8.788V21.4115ZM19.5508 19.2176L14.8838 20.468C14.6831 20.5216 14.4762 20.5488 14.2685 20.5491H10.7284C10.215 20.5503 9.71538 20.3837 9.30543 20.0748L9.21919 20.0102V18.2854L9.30543 18.2206C9.71535 17.9116 10.215 17.7451 10.7284 17.7464H12.658C12.7898 17.7463 12.9211 17.7633 13.0485 17.797L15.9525 18.5755C16.0364 18.5986 16.1115 18.6463 16.1679 18.7125C16.2244 18.7787 16.2597 18.8603 16.2693 18.9468C16.2716 18.9556 16.2745 18.9644 16.2779 18.9729C16.2754 18.9821 16.2735 18.9916 16.2722 19.0011C16.2725 19.0361 16.2677 19.0711 16.258 19.1048C16.2334 19.1962 16.1793 19.277 16.1042 19.3346C16.0291 19.3922 15.9371 19.4235 15.8424 19.4237C15.8045 19.424 15.7667 19.4192 15.7301 19.4095L13.8975 18.918C13.8606 18.9071 13.8214 18.9062 13.784 18.9155C13.7467 18.9248 13.7124 18.9439 13.685 18.9709C13.6485 18.9622 13.6104 18.9631 13.5744 18.9736C13.5384 18.9842 13.5058 19.0039 13.4797 19.0309C13.4537 19.0579 13.4351 19.0912 13.4259 19.1275C13.4167 19.1639 13.4171 19.202 13.4272 19.2381C13.4372 19.2743 13.4565 19.3072 13.4831 19.3336C13.5097 19.36 13.5428 19.379 13.579 19.3887C13.6152 19.3984 13.6533 19.3985 13.6896 19.389C13.7259 19.3795 13.759 19.3606 13.7858 19.3344L15.6184 19.826C15.6916 19.8453 15.7671 19.855 15.8428 19.8549C16.2304 19.8547 16.5702 19.5953 16.6726 19.2214C16.6846 19.1782 16.6927 19.134 16.697 19.0893L19.3254 18.3845C19.3441 18.3797 19.3644 18.3749 19.3836 18.3718C19.5982 18.3441 19.8 18.4798 19.8555 18.6888C19.8652 18.7253 19.87 18.7628 19.8697 18.8005C19.8699 18.8954 19.8387 18.9878 19.7811 19.0631C19.7234 19.1385 19.6425 19.1928 19.5508 19.2175V19.2176Z" fill="#272727"/>
<path d="M14.178 13.8656H16.334C16.3911 13.8656 16.446 13.8429 16.4864 13.8025C16.5269 13.7621 16.5496 13.7072 16.5496 13.65C16.5496 13.5929 16.5269 13.538 16.4864 13.4976C16.446 13.4572 16.3911 13.4344 16.334 13.4344H14.178C14.1208 13.4344 14.066 13.4572 14.0255 13.4976C13.9851 13.538 13.9624 13.5929 13.9624 13.65C13.9624 13.7072 13.9851 13.7621 14.0255 13.8025C14.066 13.8429 14.1208 13.8656 14.178 13.8656Z" fill="#272727"/>
<circle cx="14.5135" cy="15.4163" r="14.219" stroke="#1F1F1F" stroke-width="0.5"/>
</svg>
