<svg width="59" height="59" viewBox="0 0 59 59" fill="none" xmlns="http://www.w3.org/2000/svg">
<g clip-path="url(#clip0)">
<path d="M42.9994 2.31873L8.95452 0.0415823C7.8447 -0.0319372 6.88214 0.809619 6.80782 1.9191L6.54151 5.90125H2.0166C0.904705 5.90125 0 6.80596 0 7.91785V56.9462C0 58.0581 0.904705 58.9628 2.0166 58.9628H28.0758C28.3017 58.9628 28.5255 58.8705 28.6856 58.711L32.6195 54.7945C32.6595 54.803 32.7003 54.8098 32.7422 54.8126L39.4583 55.2618C40.5302 55.3325 41.5331 54.4607 41.605 53.3843L44.8769 4.46554C44.9505 3.36759 44.0972 2.39213 42.9994 2.31873ZM28.9401 56.0067V50.0029C28.9401 49.8442 29.0694 49.7149 29.2282 49.7149H35.2088L28.9401 56.0067ZM39.8803 53.269C39.8522 53.443 39.75 53.5325 39.5738 53.5372L34.2407 53.1804L37.8997 49.5377C38.0626 49.3756 38.1542 49.1552 38.1542 48.9253V7.91797C38.1542 6.80607 37.2495 5.90137 36.1376 5.90137H27.1501C26.0327 5.90137 26.0327 7.62988 27.1501 7.62988H36.1376C36.2965 7.62988 36.4257 7.75917 36.4257 7.91797V47.9863H29.2282C28.1163 47.9863 27.2116 48.891 27.2116 50.0029V57.2342H2.0166C1.85781 57.2342 1.72852 57.105 1.72852 56.9462V7.91797C1.72852 7.75917 1.85781 7.62988 2.0166 7.62988H22.5477C23.6651 7.62988 23.6651 5.90137 22.5477 5.90137H8.27383L8.53241 2.03456C8.56053 1.86044 8.66274 1.77114 8.83905 1.76641L42.8839 4.04344C43.058 4.07156 43.1474 4.17377 43.1522 4.35008L39.8803 53.269Z" fill="black"/>
<path d="M30.8629 27.3159H7.29134C6.81404 27.3159 6.42709 27.7029 6.42709 28.1802C6.42709 28.6575 6.81404 29.0444 7.29134 29.0444H30.8629C31.3403 29.0444 31.7271 28.6575 31.7271 28.1802C31.7271 27.7029 31.3403 27.3159 30.8629 27.3159Z" fill="black"/>
<path d="M30.8629 33.3409H7.29134C6.81404 33.3409 6.42709 33.7279 6.42709 34.2052C6.42709 34.6825 6.81404 35.0695 7.29134 35.0695H30.8629C31.3403 35.0695 31.7271 34.6825 31.7271 34.2052C31.7271 33.7279 31.3403 33.3409 30.8629 33.3409Z" fill="black"/>
<path d="M6.42709 22.1552C6.42709 22.6325 6.81404 23.0194 7.29134 23.0194H30.8629C31.3403 23.0194 31.7271 22.6325 31.7271 22.1552C31.7271 21.6779 31.3403 21.2909 30.8629 21.2909H7.29134C6.81404 21.2909 6.42709 21.6779 6.42709 22.1552Z" fill="black"/>
<path d="M10.5793 16.1301C10.5793 16.6074 10.9663 16.9944 11.4436 16.9944H26.7107C27.188 16.9944 27.5749 16.6074 27.5749 16.1301C27.5749 15.6528 27.188 15.2659 26.7107 15.2659H11.4436C10.9663 15.2659 10.5793 15.6528 10.5793 16.1301Z" fill="black"/>
<path d="M22.4425 50.5633C20.8881 50.5675 19.3337 50.5708 17.7793 50.5733C17.2568 50.5741 16.7345 50.5748 16.2121 50.5751C15.2654 50.5758 14.6276 50.3858 14.4156 49.3445C14.2363 48.4641 12.9908 48.5825 12.7488 49.3445C12.1508 51.2271 11.1616 50.4895 10.6076 49.2232C10.0548 47.9599 9.91304 46.5459 9.67163 45.2015C9.49417 44.2136 8.00004 44.4905 7.97399 45.4313C7.93965 46.6702 7.82396 47.8893 7.50948 49.0909C7.1851 50.3306 6.69893 51.522 6.21632 52.7065C5.7956 53.7391 7.46858 54.1833 7.88307 53.166C8.31071 52.1165 8.73892 51.0612 9.05766 49.9724C9.64996 51.3967 10.8754 53.0077 12.6215 52.0583C12.9464 51.8816 13.2498 51.6305 13.5161 51.3377C14.4241 52.387 15.7757 52.3043 17.0404 52.3028C18.8412 52.3005 20.6419 52.2966 22.4427 52.2919C23.5546 52.289 23.5567 50.5605 22.4425 50.5633Z" fill="black"/>
<path d="M58.3008 28.3983C57.8517 27.9514 57.2343 27.7222 56.6074 27.7053L55.9542 27.7085V26.4733C55.9542 25.7209 55.5074 24.926 54.8672 24.5302V22.7904C54.8672 19.2102 49.2931 19.2257 49.2931 22.8072V24.5473C48.641 24.9504 48.2036 25.6698 48.2036 26.4892V27.7547C45.3266 27.9506 45.3184 32.3347 48.2068 32.506C48.2252 36.375 48.2243 40.1806 48.2036 44.1144C48.1979 45.1992 49.9262 45.2628 49.9321 44.1235C49.9528 40.1864 49.9538 36.3775 49.9354 32.5052L54.2234 32.4839C54.2234 32.4839 54.2179 45.2574 54.2179 51.0118C54.2179 53.8163 49.929 53.835 49.929 50.9826L49.9305 49.4065C49.9979 48.2911 48.2726 48.187 48.2051 49.3024V50.7813C48.2051 52.0489 48.5971 53.1224 49.356 53.8775C49.4236 55.6859 50.1855 57.4357 51.4728 58.7123C51.8421 59.0787 52.3534 58.9667 52.7108 58.6913C54.0205 57.3794 54.7584 55.6498 54.8045 53.8038C55.3751 53.2355 55.9463 52.6634 55.9463 50.7044L55.947 42.828C57.4416 43.2531 59 42.0965 59 40.5296V30.081C59 29.4446 58.7517 28.847 58.3008 28.3983ZM49.9321 27.7383V26.4891C49.9321 26.2334 50.1076 26.0189 50.3438 25.9552L53.8037 25.938C53.9005 25.962 53.9898 26.0077 54.0622 26.0799C54.1676 26.1849 54.2257 26.3245 54.2257 26.4733V27.7171L49.9321 27.7383ZM52.0836 21.7461C52.6142 21.7461 53.1386 22.2663 53.1386 22.7904V24.1923L51.0215 24.2028V22.8072C51.0216 22.2249 51.4978 21.749 52.0836 21.7461ZM52.0824 56.766C51.6805 56.1965 51.3899 55.5524 51.2277 54.8754C51.4952 54.9334 51.7663 54.9636 52.0374 54.9636C52.3401 54.9636 52.6427 54.926 52.9407 54.8533C52.7824 55.5406 52.4922 56.1885 52.0824 56.766ZM57.2715 40.5296C57.2715 41.3479 55.9518 41.4123 55.9518 40.5447C55.9518 40.5447 55.9533 32.366 55.9542 31.6163C55.9548 31.1328 55.5529 30.751 55.0833 30.751L48.3549 30.7844C47.5203 30.7844 47.5398 29.4787 48.3634 29.4747L56.6159 29.4338C57.015 29.4678 57.2335 29.6836 57.2714 30.081V40.5296H57.2715Z" fill="black"/>
</g>
<defs>
<clipPath id="clip0">
<rect width="59" height="59" fill="white"/>
</clipPath>
</defs>
</svg>
