<svg width="70" height="69" viewBox="0 0 70 69" fill="none" xmlns="http://www.w3.org/2000/svg">
<g filter="url(#filter0_d)">
<rect x="3.97501" y="3" width="59" height="59" rx="29.5" fill="white"/>
</g>
<path d="M25.132 44.9684H32.8297V36.5793H30.0641V33.8137H32.8297V30.3566C32.8297 28.4504 34.3805 26.8996 36.2867 26.8996H39.7437V29.6652H36.9781C36.2156 29.6652 35.5953 30.2855 35.5953 31.048V33.8137H39.619L39.158 36.5793H35.5953V44.9684H41.818C43.7242 44.9684 45.275 43.4176 45.275 41.5113V24.8254C45.275 22.9192 43.7242 21.3684 41.818 21.3684H25.132C23.2258 21.3684 21.675 22.9192 21.675 24.8254V41.5113C21.675 43.4176 23.2258 44.9684 25.132 44.9684ZM23.0578 24.8254C23.0578 23.6817 23.9883 22.7512 25.132 22.7512H41.818C42.9617 22.7512 43.8922 23.6817 43.8922 24.8254V41.5113C43.8922 42.655 42.9617 43.5856 41.818 43.5856H36.9781V37.9621H40.3295L41.2513 32.4309H36.9781V31.048H41.1266V25.5168H36.2867C33.618 25.5168 31.4469 27.6879 31.4469 30.3566V32.4309H28.6812V37.9621H31.4469V43.5856H25.132C23.9883 43.5856 23.0578 42.655 23.0578 41.5113V24.8254Z" fill="black"/>
<defs>
<filter id="filter0_d" x="0.975006" y="0" width="69" height="69" filterUnits="userSpaceOnUse" color-interpolation-filters="sRGB">
<feFlood flood-opacity="0" result="BackgroundImageFix"/>
<feColorMatrix in="SourceAlpha" type="matrix" values="0 0 0 0 0 0 0 0 0 0 0 0 0 0 0 0 0 0 127 0"/>
<feOffset dx="2" dy="2"/>
<feGaussianBlur stdDeviation="2.5"/>
<feColorMatrix type="matrix" values="0 0 0 0 0 0 0 0 0 0 0 0 0 0 0 0 0 0 0.15 0"/>
<feBlend mode="normal" in2="BackgroundImageFix" result="effect1_dropShadow"/>
<feBlend mode="normal" in="SourceGraphic" in2="effect1_dropShadow" result="shape"/>
</filter>
</defs>
</svg>
