<svg width="70" height="69" viewBox="0 0 70 69" fill="none" xmlns="http://www.w3.org/2000/svg">
<g filter="url(#filter0_d)">
<rect x="3.77499" y="3" width="59" height="59" rx="29.5" fill="white"/>
</g>
<path d="M38.3483 20.7H26.9933C23.1372 20.7 20 23.8373 20 27.6934V39.0484C20 42.9047 23.1372 46.0418 26.9933 46.0418H38.3483C42.2047 46.0418 45.3419 42.9045 45.3419 39.0484V27.6934C45.342 23.8373 42.2047 20.7 38.3483 20.7ZM43.0935 39.0484C43.0935 41.6649 40.9649 43.7934 38.3484 43.7934H26.9933C24.377 43.7935 22.2485 41.6649 22.2485 39.0484V27.6934C22.2485 25.0771 24.377 22.9484 26.9933 22.9484H38.3483C40.9647 22.9484 43.0934 25.0771 43.0934 27.6934V39.0484H43.0935Z" fill="black"/>
<path d="M32.6709 26.8413C29.0702 26.8413 26.1409 29.7706 26.1409 33.3713C26.1409 36.9718 29.0702 39.9009 32.6709 39.9009C36.2715 39.9009 39.2008 36.9718 39.2008 33.3713C39.2008 29.7706 36.2715 26.8413 32.6709 26.8413ZM32.6709 37.6523C30.3101 37.6523 28.3894 35.7319 28.3894 33.3711C28.3894 31.0103 30.31 29.0896 32.6709 29.0896C35.0317 29.0896 36.9524 31.0103 36.9524 33.3711C36.9524 35.7319 35.0316 37.6523 32.6709 37.6523Z" fill="black"/>
<path d="M39.4747 24.9349C39.0415 24.9349 38.616 25.1103 38.31 25.4176C38.0026 25.7234 37.8259 26.1491 37.8259 26.5838C37.8259 27.0171 38.0027 27.4427 38.31 27.75C38.6158 28.0558 39.0415 28.2326 39.4747 28.2326C39.9094 28.2326 40.3336 28.0558 40.6409 27.75C40.9482 27.4427 41.1236 27.017 41.1236 26.5838C41.1236 26.1491 40.9482 25.7234 40.6409 25.4176C40.3351 25.1103 39.9094 24.9349 39.4747 24.9349Z" fill="black"/>
<defs>
<filter id="filter0_d" x="0.774994" y="0" width="69" height="69" filterUnits="userSpaceOnUse" color-interpolation-filters="sRGB">
<feFlood flood-opacity="0" result="BackgroundImageFix"/>
<feColorMatrix in="SourceAlpha" type="matrix" values="0 0 0 0 0 0 0 0 0 0 0 0 0 0 0 0 0 0 127 0"/>
<feOffset dx="2" dy="2"/>
<feGaussianBlur stdDeviation="2.5"/>
<feColorMatrix type="matrix" values="0 0 0 0 0 0 0 0 0 0 0 0 0 0 0 0 0 0 0.15 0"/>
<feBlend mode="normal" in2="BackgroundImageFix" result="effect1_dropShadow"/>
<feBlend mode="normal" in="SourceGraphic" in2="effect1_dropShadow" result="shape"/>
</filter>
</defs>
</svg>
