<svg width="48" height="51" viewBox="0 0 48 51" fill="none" xmlns="http://www.w3.org/2000/svg">
<path d="M46.0373 0.696045H16.1075C15.1082 0.696045 14.2949 1.45701 14.2949 2.39213V20.9869L4.81841 11.1148C4.54328 10.8282 4.16498 10.659 3.75391 10.6386C3.34163 10.6177 2.94755 10.7484 2.64127 11.0058L0.51065 12.7965C-0.121738 13.3281 -0.173931 14.242 0.394126 14.8337L13.7803 28.7779C13.9263 28.9301 14.1015 29.0479 14.2949 29.1293V40.3495H11.2754C10.8461 40.3495 10.4986 40.6751 10.4986 41.0764C10.4986 41.4777 10.8461 41.8033 11.2754 41.8033H32.6916C32.8344 41.8033 32.9506 41.912 32.9506 42.0456V43.5399C32.9506 45.6971 34.0333 47.6222 35.7164 48.8644H8.19114C5.05308 48.8644 2.50006 46.4759 2.50006 43.5395V42.0456C2.50006 41.912 2.61618 41.8033 2.759 41.8033H7.89255C8.32143 41.8033 8.66938 41.4777 8.66938 41.0764C8.66938 40.6751 8.32143 40.3495 7.89255 40.3495H2.759C1.75965 40.3495 0.946403 41.1105 0.946403 42.0456V43.5395C0.946403 47.2773 4.19654 50.3182 8.19114 50.3182H40.6052C44.5998 50.3182 47.8499 47.2773 47.8499 43.5395V23.759C47.8499 23.3577 47.5023 23.0321 47.0731 23.0321C46.6438 23.0321 46.2962 23.3577 46.2962 23.759V43.5395C46.2962 46.4759 43.7432 48.8648 40.6052 48.8648H40.1945C37.0564 48.8648 34.5038 46.4762 34.5038 43.5399V42.046C34.5038 41.1105 33.6906 40.3499 32.6912 40.3499H15.8486V29.6551L18.065 30.686C18.241 30.7678 18.4295 30.8079 18.6164 30.8079C18.9142 30.8079 19.2076 30.7065 19.4406 30.5107C19.8197 30.192 19.9504 29.6971 19.7736 29.2497L18.5825 26.2353C18.5893 26.1906 18.5946 26.146 18.597 26.1005C18.6193 25.7159 18.4797 25.346 18.2046 25.0594L15.8486 22.6054V2.39213C15.8486 2.25848 15.9647 2.14983 16.1075 2.14983H46.0373C46.1801 2.14983 46.2962 2.25848 46.2962 2.39213V11.8713C46.2962 12.2729 46.6438 12.5981 47.0731 12.5981C47.5023 12.5981 47.8499 12.2729 47.8499 11.8713V2.39213C47.8499 1.45701 47.0367 0.696045 46.0373 0.696045V0.696045ZM3.67057 12.0946L4.59305 13.0559L2.48064 14.8318L1.55775 13.8706L3.67057 12.0946ZM3.51844 15.9135L3.99708 15.511L15.4064 27.3961L14.9281 27.7985L3.51844 15.9135ZM16.574 28.3691L17.471 27.6149L18.0387 29.0501L16.574 28.3691ZM16.5623 26.4246L5.15301 14.5396L5.63125 14.1375L17.0405 26.0226L16.5623 26.4246Z" fill="black"/>
<path d="M47.0725 14.3093C46.6436 14.3093 46.2957 14.6345 46.2957 15.0362V20.5928C46.2957 20.9945 46.6436 21.3197 47.0725 21.3197C47.5018 21.3197 47.8493 20.9945 47.8493 20.5928V15.0362C47.8493 14.6345 47.5018 14.3093 47.0725 14.3093Z" fill="black"/>
<path d="M22.1315 15.293C20.666 15.293 19.4737 16.4087 19.4737 17.7803C19.4737 19.1516 20.666 20.2673 22.1315 20.2673C23.5973 20.2673 24.7897 19.1516 24.7897 17.7803C24.7897 16.4087 23.5973 15.293 22.1315 15.293ZM22.1315 18.8135C21.5226 18.8135 21.0273 18.3501 21.0273 17.7803C21.0273 17.2105 21.5226 16.7468 22.1315 16.7468C22.7404 16.7468 23.236 17.2105 23.236 17.7803C23.236 18.3501 22.7404 18.8135 22.1315 18.8135Z" fill="black"/>
<path d="M27.1265 18.6618H30.933C31.3619 18.6618 31.7098 18.3362 31.7098 17.9349C31.7098 17.5336 31.3619 17.208 30.933 17.208H27.1265C26.6977 17.208 26.3497 17.5336 26.3497 17.9349C26.3497 18.3362 26.6977 18.6618 27.1265 18.6618Z" fill="black"/>
<path d="M40.3953 18.9508H27.1265C26.6977 18.9508 26.3497 19.276 26.3497 19.6777C26.3497 20.079 26.6977 20.4046 27.1265 20.4046H40.3953C40.8242 20.4046 41.1722 20.079 41.1722 19.6777C41.1722 19.276 40.8242 18.9508 40.3953 18.9508Z" fill="black"/>
<path d="M27.1302 16.6086H27.1354C27.5643 16.6059 27.9098 16.2784 27.9074 15.8771C27.9046 15.477 27.557 15.1548 27.1306 15.1548C27.129 15.1548 27.1274 15.1548 27.1253 15.1548H27.1176C26.6884 15.1571 26.3469 15.4845 26.3497 15.8862C26.3521 16.286 26.7033 16.6086 27.1302 16.6086Z" fill="black"/>
<path d="M22.1315 22.9692C20.666 22.9692 19.4737 24.0849 19.4737 25.4566C19.4737 26.8278 20.666 27.9435 22.1315 27.9435C23.5973 27.9435 24.7897 26.8278 24.7897 25.4566C24.7897 24.0849 23.5973 22.9692 22.1315 22.9692ZM22.1315 26.4897C21.5226 26.4897 21.0273 26.0263 21.0273 25.4562C21.0273 24.8864 21.5226 24.423 22.1315 24.423C22.7404 24.423 23.236 24.8864 23.236 25.4562C23.236 26.0263 22.7404 26.4897 22.1315 26.4897Z" fill="black"/>
<path d="M27.1265 26.3417H30.933C31.3619 26.3417 31.7098 26.0161 31.7098 25.6148C31.7098 25.2135 31.3619 24.8879 30.933 24.8879H27.1265C26.6977 24.8879 26.3497 25.2135 26.3497 25.6148C26.3497 26.0161 26.6977 26.3417 27.1265 26.3417Z" fill="black"/>
<path d="M40.3953 26.6305H27.1265C26.6977 26.6305 26.3497 26.9557 26.3497 27.3574C26.3497 27.7587 26.6977 28.0843 27.1265 28.0843H40.3953C40.8242 28.0843 41.1722 27.7587 41.1722 27.3574C41.1722 26.9557 40.8242 26.6305 40.3953 26.6305Z" fill="black"/>
<path d="M27.1302 24.2848H27.1354C27.5643 24.2826 27.9098 23.9551 27.9074 23.5534C27.9046 23.1536 27.557 22.8311 27.1306 22.8311C27.129 22.8311 27.1274 22.8311 27.1253 22.8311H27.1176C26.6884 22.8337 26.3469 23.1612 26.3497 23.5625C26.3521 23.9627 26.7033 24.2848 27.1302 24.2848Z" fill="black"/>
<path d="M22.1315 30.6509C20.666 30.6509 19.4737 31.7666 19.4737 33.1382C19.4737 34.5095 20.666 35.6252 22.1315 35.6252C23.5973 35.6252 24.7897 34.5095 24.7897 33.1382C24.7897 31.7666 23.5973 30.6509 22.1315 30.6509ZM22.1315 34.1714C21.5226 34.1714 21.0273 33.708 21.0273 33.1382C21.0273 32.5684 21.5226 32.1047 22.1315 32.1047C22.7404 32.1047 23.236 32.5684 23.236 33.1382C23.236 33.708 22.7404 34.1714 22.1315 34.1714Z" fill="black"/>
<path d="M27.1265 34.0197H30.933C31.3619 34.0197 31.7098 33.6941 31.7098 33.2928C31.7098 32.8915 31.3619 32.5659 30.933 32.5659H27.1265C26.6977 32.5659 26.3497 32.8915 26.3497 33.2928C26.3497 33.6941 26.6977 34.0197 27.1265 34.0197Z" fill="black"/>
<path d="M27.1265 35.7625H40.3953C40.8242 35.7625 41.1722 35.4369 41.1722 35.0356C41.1722 34.6339 40.8242 34.3087 40.3953 34.3087H27.1265C26.6977 34.3087 26.3497 34.6339 26.3497 35.0356C26.3497 35.4369 26.6977 35.7625 27.1265 35.7625Z" fill="black"/>
<path d="M27.1302 31.9665H27.1354C27.5643 31.9638 27.9098 31.6364 27.9074 31.235C27.9046 30.8349 27.557 30.5127 27.1306 30.5127C27.129 30.5127 27.1274 30.5127 27.1253 30.5127H27.1176C26.6884 30.515 26.3469 30.8424 26.3497 31.2441C26.3521 31.6439 26.7033 31.9665 27.1302 31.9665Z" fill="black"/>
<path d="M42.3363 10.2224V6.0068C42.3363 5.60512 41.9884 5.27991 41.5595 5.27991H20.5879C20.1586 5.27991 19.8111 5.60512 19.8111 6.0068V10.2224C19.8111 10.6241 20.1586 10.9493 20.5879 10.9493H41.5595C41.9884 10.9493 42.3363 10.6241 42.3363 10.2224ZM40.7827 9.4955H21.3648V6.73369H40.7827V9.4955Z" fill="black"/>
</svg>
