<svg width="40" height="54" viewBox="0 0 40 54" fill="none" xmlns="http://www.w3.org/2000/svg">
<path d="M12.5843 20.8051C13.1934 22.0244 14.4186 22.7812 15.7812 22.7812C17.1439 22.7812 18.369 22.0244 18.9782 20.8051L19.0668 20.6271L17.5573 19.8719L17.4687 20.0508C17.1473 20.6938 16.5009 21.0937 15.7812 21.0937C15.0615 21.0937 14.4152 20.6938 14.0937 20.0508L14.0051 19.8728L12.4957 20.6279L12.5843 20.8051Z" fill="black"/>
<path d="M19.1562 16.875C19.6222 16.875 20 16.4972 20 16.0312C20 15.5653 19.6222 15.1875 19.1562 15.1875C18.6903 15.1875 18.3125 15.5653 18.3125 16.0312C18.3125 16.4972 18.6903 16.875 19.1562 16.875Z" fill="black"/>
<path d="M12.4062 16.875C12.8722 16.875 13.25 16.4972 13.25 16.0312C13.25 15.5653 12.8722 15.1875 12.4062 15.1875C11.9403 15.1875 11.5625 15.5653 11.5625 16.0312C11.5625 16.4972 11.9403 16.875 12.4062 16.875Z" fill="black"/>
<path d="M36.0312 22.7812C34.4197 22.7812 33.0672 23.9178 32.7347 25.4306C31.7121 25.7555 30.9688 26.7148 30.9688 27.8438V27.9889C30.9688 28.6647 31.2328 29.3009 31.7104 29.7785L32.6562 30.7243V35.4383L29.6069 31.3732C28.3422 29.6857 26.669 28.3525 24.7782 27.4733C27.0462 25.8753 28.4375 23.2639 28.4375 20.4061C28.4375 19.0688 28.1219 17.7314 27.5246 16.5375L27.4849 16.4582C27.004 15.4972 26.75 14.4205 26.75 13.3439V11.8125C26.75 5.7645 21.8293 0.84375 15.7812 0.84375C9.73325 0.84375 4.8125 5.7645 4.8125 11.8125V13.3439C4.8125 14.4197 4.55853 15.4972 4.07759 16.4573L4.03794 16.5375C3.44056 17.7314 3.125 19.0688 3.125 20.4061C3.125 23.4082 4.70028 26.163 7.17669 27.7256C3.24988 29.9135 0.59375 34.1094 0.59375 38.8446V42.4769C0.59375 45.4258 2.87863 47.8457 5.77016 48.0718C4.63278 49.1754 3.96875 50.7119 3.96875 52.3125V53.1562H27.5938V52.3125C27.5938 50.4638 26.7103 48.697 25.2313 47.5875L24.3166 46.9015L25.4945 41.6003C25.6295 40.9919 25.7316 40.3751 25.7999 39.7541L29.7867 44.4715C30.8253 45.7017 32.3441 46.4062 33.9522 46.4062C36.9602 46.4062 39.4062 43.9602 39.4062 40.9522V26.1562C39.4062 24.2949 37.8926 22.7812 36.0312 22.7812ZM32.6562 27.8438C32.6562 27.378 33.0342 27 33.5 27H34.3438V26.1562C34.3438 25.2256 35.1006 24.4688 36.0312 24.4688C36.9619 24.4688 37.7188 25.2256 37.7188 26.1562V29.5312H33.8493L32.9035 28.5854C32.7457 28.4276 32.6562 28.2108 32.6562 27.9889V27.8438ZM4.8125 20.4061C4.8125 19.3303 5.06647 18.2528 5.54741 17.2927L5.58706 17.2133C6.18444 16.0194 6.5 14.6821 6.5 13.3448V11.8125C6.5 6.69516 10.6639 2.53125 15.7812 2.53125C20.8986 2.53125 25.0625 6.69516 25.0625 11.8125V13.3439C25.0625 14.6812 25.3781 16.0186 25.9754 17.2125L26.0151 17.2918C26.496 18.2528 26.75 19.3295 26.75 20.4053C26.75 23.1424 25.157 25.5884 22.684 26.7224C22.1338 26.5756 21.5761 26.4516 21.0066 26.3807L19.7089 26.2187L19.4946 25.7901C21.755 24.9607 23.375 22.7939 23.375 20.25V11.8125H22.5312C20.4396 11.8125 20 10.4355 20 9.28125H18.3125C18.3125 10.1579 18.526 11.0557 19.0069 11.7998C17.0536 11.7298 16.625 10.4051 16.625 9.28125H14.9375C14.9375 10.1562 15.1434 11.0557 15.6218 11.799C13.6778 11.7248 13.25 10.4034 13.25 9.28125H11.5625C11.5625 9.66178 11.6013 10.0465 11.684 10.4212L11.5785 10.4423C9.61344 10.8354 8.1875 12.5752 8.1875 14.5792V20.25C8.1875 22.7939 9.8075 24.9615 12.0679 25.7909L11.8612 26.2052C10.9213 26.314 10.0184 26.5368 9.15275 26.8405C6.55062 25.7766 4.8125 23.231 4.8125 20.4061ZM20.8438 46.4062H10.2243L16.5229 40.1077C17.1329 39.4985 17.4688 38.6868 17.4688 37.8236C17.4688 36.0433 16.0192 34.5938 14.238 34.5938H13.8811C12.6644 34.5938 11.5684 35.262 11.0107 36.342C10.9103 36.3648 10.8149 36.3994 10.7188 36.434V32.9062H20.8438V46.4062ZM10.7188 38.8125C10.7188 38.3467 11.0968 37.9688 11.5625 37.9688H12.0839L12.5007 37.1343C12.764 36.6086 13.293 36.2812 13.8811 36.2812H14.238C15.0894 36.2812 15.7812 36.9731 15.7812 37.8236C15.7812 38.2295 15.6167 38.6277 15.3298 38.9146L12.8281 41.4163L10.7188 39.3069V38.8125ZM12.3902 12.0007C13.0467 12.8824 14.1292 13.5 15.7812 13.5V12.0218C16.4394 12.8925 17.5177 13.5 19.1562 13.5V12.0133C19.6937 12.7271 20.5079 13.2697 21.6875 13.4418V20.25C21.6875 22.5762 19.795 24.4688 17.4688 24.4688H14.0938C11.7675 24.4688 9.875 22.5762 9.875 20.25V14.5792C9.875 13.376 10.7314 12.3322 11.9101 12.0968L12.3902 12.0007ZM13.7799 26.1402C13.8845 26.1461 13.9874 26.1562 14.0938 26.1562H17.4688C17.5751 26.1562 17.678 26.1461 17.7826 26.1402L18.1826 26.9392L15.7812 30.5412L13.3799 26.9392L13.7799 26.1402ZM2.28125 42.4769V38.8446C2.28125 33.2758 6.51097 28.5677 11.9928 27.9011L14.2051 31.2188H9.03125V38.8125V39.1669L7.51672 40.0326C7.41378 39.3086 7.34375 38.5813 7.34375 37.8515V37.2617C7.34375 35.5835 7.61291 33.9238 8.14362 32.3291L6.54388 31.795C5.95494 33.5618 5.65625 35.4012 5.65625 37.2617V37.8515C5.65625 38.8834 5.75497 39.9161 5.93891 40.9337L3.54941 42.2989L4.38641 43.7636L9.73325 40.7084L11.6342 42.6094L8.98822 45.2554C8.24656 45.9979 7.26022 46.4062 6.21059 46.4062C4.04384 46.4062 2.28125 44.6437 2.28125 42.4769ZM25.8193 51.4688H5.74316C5.94903 50.4681 6.51603 49.5585 7.34459 48.9375L8.46847 48.0938H23.094L24.2188 48.9375C25.0465 49.5585 25.6135 50.4681 25.8193 51.4688ZM33.9522 44.7188C32.8419 44.7188 31.7931 44.2319 31.0759 43.3831L25.9062 37.2651V37.2617C25.9062 35.4012 25.6076 33.5618 25.0186 31.795L23.4189 32.3291C23.9496 33.9238 24.2188 35.5835 24.2188 37.2617V37.8515C24.2188 38.9888 24.0939 40.1262 23.8475 41.2349L22.6983 46.4062H22.5312V31.2188H17.3574L19.5688 27.902L20.7973 28.0555C23.7522 28.4251 26.4716 30.0029 28.2569 32.3848L32.6562 38.2497V41.3438H34.3438V31.2188H37.7188V40.9522C37.7188 43.0287 36.0287 44.7188 33.9522 44.7188Z" fill="black"/>
</svg>
