<svg width="74" height="74" viewBox="0 0 74 74" fill="none" xmlns="http://www.w3.org/2000/svg">
<path d="M9.9744 29.412H21.1738C21.9719 29.412 22.6191 28.7648 22.6191 27.9667C22.6191 27.1686 21.9719 26.5214 21.1738 26.5214H9.9744C9.17629 26.5214 8.52908 27.1686 8.52908 27.9667C8.52908 28.7648 9.17615 29.412 9.9744 29.412Z" fill="#737373"/>
<path d="M9.9744 39.4202H21.1738C21.9719 39.4202 22.6191 38.773 22.6191 37.9749C22.6191 37.1768 21.9719 36.5295 21.1738 36.5295H9.9744C9.17629 36.5295 8.52908 37.1768 8.52908 37.9749C8.52908 38.773 9.17615 39.4202 9.9744 39.4202Z" fill="#737373"/>
<path d="M23.8491 63.6457C23.546 62.9188 22.6911 62.562 21.9615 62.8639C21.2341 63.165 20.8794 64.0249 21.1811 64.7515C21.4831 65.4792 22.3389 65.8342 23.0672 65.5334C23.7942 65.2332 24.1515 64.3721 23.8491 63.6457Z" fill="#737373"/>
<path d="M73.6122 41.2809L56.4211 22.8271L61.6846 17.5759C62.5988 16.6718 63.1023 15.4656 63.1023 14.1794C63.1023 12.9111 62.6112 11.7173 61.7202 10.8182C59.877 8.95661 56.8431 8.93261 54.957 10.7651C54.9524 10.7696 54.9479 10.7741 54.9433 10.7786L47.7267 17.9778H45.0303V12.4274C45.0303 11.6293 44.3831 10.9821 43.585 10.9821H35.9316V9.80139C35.9316 9.00329 35.2844 8.35608 34.4863 8.35608C33.6882 8.35608 33.041 9.00329 33.041 9.80139V10.9821H27.7611V9.80139C27.7611 9.00329 27.1139 8.35608 26.3158 8.35608C25.5177 8.35608 24.8705 9.00329 24.8705 9.80139V10.9821H19.5905V9.80139C19.5905 9.00329 18.9433 8.35608 18.1452 8.35608C17.3471 8.35608 16.6999 9.00329 16.6999 9.80139V10.9821H11.4197V9.80139C11.4197 9.00329 10.7725 8.35608 9.97439 8.35608C9.17629 8.35608 8.52908 9.00329 8.52908 9.80139V10.9821H1.44531C0.647211 10.9821 0 11.6293 0 12.4274V64.1985C0 64.9966 0.647211 65.6438 1.44531 65.6438H16.1979C16.996 65.6438 17.6432 64.9966 17.6432 64.1985C17.6432 63.4004 16.996 62.7532 16.1979 62.7532H2.89062V13.8727H8.52908V15.184C8.52908 15.9821 9.17629 16.6293 9.97439 16.6293C10.7725 16.6293 11.4197 15.9821 11.4197 15.184V13.8727H16.6997V15.184C16.6997 15.9821 17.3469 16.6293 18.145 16.6293C18.9431 16.6293 19.5903 15.9821 19.5903 15.184V13.8727H24.8704V15.184C24.8704 15.9821 25.5176 16.6293 26.3157 16.6293C27.1138 16.6293 27.761 15.9821 27.761 15.184V13.8727H33.0409V15.184C33.0409 15.9821 33.6881 16.6293 34.4862 16.6293C35.2843 16.6293 35.9315 15.9821 35.9315 15.184V13.8727H42.1395V17.9859C39.5435 18.0914 37.0642 19.1877 35.2234 21.0182L24.5872 31.6542C23.9445 32.297 24.0639 33.3979 24.8243 33.89C26.0218 34.6645 27.3642 35.1653 28.7669 35.3672C29.2345 35.4346 29.7087 35.4687 30.1867 35.4687C30.189 35.4687 30.1911 35.4686 30.1933 35.4686L28.5342 37.1237C28.4138 37.244 28.3183 37.3839 28.2476 37.5349L23.6112 44.499C23.1934 45.1266 23.0228 45.843 23.0853 46.5376H9.97439C9.17629 46.5376 8.52908 47.1848 8.52908 47.9829C8.52908 48.781 9.17629 49.4282 9.97439 49.4282H26.2519C26.8775 49.4282 27.5083 49.2197 28.0235 48.8696L35.0707 44.0812C35.154 44.0265 35.2346 43.9621 35.3051 43.8918L38.5737 40.6309L42.1397 44.1891V62.7532H28.9139C28.1158 62.7532 27.4686 63.4004 27.4686 64.1985C27.4686 64.9966 28.1158 65.6438 28.9139 65.6438H43.585C44.3831 65.6438 45.0303 64.9966 45.0303 64.1985V47.0105C46.8575 48.528 49.1356 49.3551 51.5411 49.3551H57.3075C58.5067 49.3551 59.6694 49.8525 60.4902 50.7118L71.5021 62.4141C72.3779 63.345 73.9999 62.7036 73.9999 61.4236V42.266C74 41.9005 73.8614 41.5484 73.6122 41.2809ZM37.2677 23.0623C38.6676 21.6623 40.5847 20.8681 42.5645 20.8681H44.8288L35.8238 29.8515C34.9906 30.6515 34.2019 31.4354 33.1348 31.93C31.5603 32.6597 29.7309 32.7762 28.0756 32.254L37.2677 23.0623ZM56.9768 12.8329C57.7308 12.1065 58.9352 12.1142 59.6665 12.8526C60.018 13.2073 60.2116 13.6784 60.2116 14.1794C60.2116 14.6876 60.0128 15.1638 59.6476 15.5251L44.5427 30.5948L43.8148 29.8668C43.1332 29.1852 42.2731 28.6845 41.3442 28.4277L56.9768 12.8329ZM26.3988 46.4788C26.2751 46.5629 26.1597 46.5532 26.0525 46.4469C25.8926 46.2885 25.9737 46.1666 26.0174 46.101L29.7943 40.428L32.0254 42.6557L26.3988 46.4788ZM34.2856 40.8259L31.6041 38.1444L34.358 35.3966C34.618 36.3376 35.1331 37.1967 35.8222 37.8857L36.5274 38.5894L34.2856 40.8259ZM71.1094 57.7788L62.5881 48.7234C61.2172 47.2879 59.2925 46.4646 57.3075 46.4646H51.5411C49.5887 46.4646 47.7527 45.706 46.3717 44.3286L37.861 35.8365C36.6323 34.9151 36.9068 32.8725 37.8614 31.903C38.934 30.8592 40.7217 30.8613 41.7707 31.9106L48.6854 38.8253C49.2417 39.3813 50.1729 39.3814 50.7295 38.8253C51.2939 38.2609 51.2939 37.3457 50.7295 36.7812L46.5868 32.6385L54.3735 24.8699L71.1094 42.835V57.7788Z" fill="#737373"/>
</svg>
