<svg width="59" height="59" viewBox="0 0 59 59" fill="none" xmlns="http://www.w3.org/2000/svg">
<path d="M57.1562 35.9531H50.7031C50.4579 35.9531 50.2237 36.0499 50.0514 36.2232L42.9465 43.3281H31.3437C30.8349 43.3281 30.4219 42.9142 30.4219 42.4062C30.4219 41.8983 30.8349 41.4844 31.3437 41.4844H35.9531C36.1983 41.4844 36.4325 41.3876 36.6049 41.2143L40.2924 37.5268C40.556 37.2631 40.6353 36.8667 40.4924 36.5219C40.3505 36.1781 40.0131 35.9531 39.6406 35.9531H26.7344C26.5085 35.9531 26.291 36.0361 26.1222 36.1854L18.0872 43.3281H15.6719V42.4062C15.6719 41.8974 15.2598 41.4844 14.75 41.4844H11.9844V40.5625C11.9844 40.0536 11.5723 39.6406 11.0625 39.6406H1.84375C1.33395 39.6406 0.921875 40.0536 0.921875 40.5625V57.1562C0.921875 57.6651 1.33395 58.0781 1.84375 58.0781H11.0625C11.5723 58.0781 11.9844 57.6651 11.9844 57.1562V56.2344H14.75C15.2598 56.2344 15.6719 55.8214 15.6719 55.3125V54.3906H40.5625C40.8077 54.3906 41.0419 54.2938 41.2143 54.1205L57.808 37.5268C58.0717 37.2631 58.1509 36.8667 58.0081 36.5219C57.8661 36.1781 57.5287 35.9531 57.1562 35.9531ZM10.1406 56.2344H2.76562V41.4844H10.1406V42.4062V55.3125V56.2344ZM13.8281 54.3906H11.9844V43.3281H13.8281V54.3906ZM40.1808 52.5469H15.6719V45.1719H18.4375C18.6634 45.1719 18.8809 45.0889 19.0496 44.9396L27.0847 37.7969H37.4152L35.5715 39.6406H31.3437C29.819 39.6406 28.5781 40.8815 28.5781 42.4062C28.5781 43.931 29.819 45.1719 31.3437 45.1719H43.3281C43.5733 45.1719 43.8075 45.0751 43.9799 44.9018L51.0848 37.7969H54.9308L40.1808 52.5469Z" fill="black"/>
<path d="M33.1875 29.5C37.7628 29.5 41.4844 25.7775 41.4844 21.2031C41.4844 16.6288 37.7628 12.9062 33.1875 12.9062C28.6122 12.9062 24.8906 16.6288 24.8906 21.2031C24.8906 25.7775 28.6122 29.5 33.1875 29.5ZM33.1875 14.75C36.745 14.75 39.6406 17.6447 39.6406 21.2031C39.6406 24.7616 36.745 27.6562 33.1875 27.6562C29.63 27.6562 26.7344 24.7616 26.7344 21.2031C26.7344 17.6447 29.63 14.75 33.1875 14.75Z" fill="black"/>
<path d="M31.3438 23.0469H29.5C29.5 24.5717 30.7408 25.8125 32.2656 25.8125V26.7344H34.1094V25.8125C35.6342 25.8125 36.875 24.5717 36.875 23.0469C36.875 21.5221 35.6342 20.2812 34.1094 20.2812V18.4375C34.6182 18.4375 35.0312 18.8514 35.0312 19.3594H36.875C36.875 17.8346 35.6342 16.5938 34.1094 16.5938V15.6719H32.2656V16.5938C30.7408 16.5938 29.5 17.8346 29.5 19.3594C29.5 20.8842 30.7408 22.125 32.2656 22.125V23.9688C31.7568 23.9688 31.3438 23.5548 31.3438 23.0469ZM31.3438 19.3594C31.3438 18.8514 31.7568 18.4375 32.2656 18.4375V20.2812C31.7568 20.2812 31.3438 19.8673 31.3438 19.3594ZM34.1094 22.125C34.6182 22.125 35.0312 22.5389 35.0312 23.0469C35.0312 23.5548 34.6182 23.9688 34.1094 23.9688V22.125Z" fill="black"/>
<path d="M57.1562 10.1406H54.3906V7.375C54.3906 6.86613 53.9785 6.45312 53.4688 6.45312H50.7031V1.84375C50.7031 1.33488 50.291 0.921875 49.7812 0.921875H1.84375C1.33395 0.921875 0.921875 1.33488 0.921875 1.84375V22.125C0.921875 22.6339 1.33395 23.0469 1.84375 23.0469H4.60938V27.6562C4.60938 28.1651 5.02145 28.5781 5.53125 28.5781H8.29688V31.3438C8.29688 31.8526 8.70895 32.2656 9.21875 32.2656H57.1562C57.666 32.2656 58.0781 31.8526 58.0781 31.3438V11.0625C58.0781 10.5536 57.666 10.1406 57.1562 10.1406ZM4.60938 7.375V21.2031H2.76562V2.76562H48.8594V6.45312H5.53125C5.02145 6.45312 4.60938 6.86613 4.60938 7.375ZM8.29688 11.0625V26.7344H6.45312V8.29688H52.5469V10.1406H9.21875C8.70895 10.1406 8.29688 10.5536 8.29688 11.0625ZM56.2344 30.4219H10.1406V11.9844H56.2344V30.4219Z" fill="black"/>
<path d="M54.3906 27.6562V14.75C54.3906 14.2411 53.9785 13.8281 53.4688 13.8281H42.4062V15.6719H52.5469V26.7344H42.4062V28.5781H53.4688C53.9785 28.5781 54.3906 28.1651 54.3906 27.6562Z" fill="black"/>
<path d="M12.9062 28.5781H23.9688V26.7344H13.8281V15.6719H23.9688V13.8281H12.9062C12.3965 13.8281 11.9844 14.2411 11.9844 14.75V27.6562C11.9844 28.1651 12.3965 28.5781 12.9062 28.5781Z" fill="black"/>
</svg>
