<svg width="74" height="74" viewBox="0 0 74 74" fill="none" xmlns="http://www.w3.org/2000/svg">
<path d="M60.125 27.75C59.4389 27.75 58.7683 27.9534 58.1979 28.3346C57.6274 28.7157 57.1828 29.2575 56.9203 29.8913C56.6578 30.5251 56.5891 31.2226 56.7229 31.8955C56.8567 32.5683 57.1871 33.1864 57.6722 33.6715C58.1573 34.1566 58.7754 34.487 59.4483 34.6208C60.1212 34.7547 60.8186 34.686 61.4524 34.4235C62.0863 34.1609 62.628 33.7163 63.0092 33.1459C63.3903 32.5754 63.5937 31.9048 63.5937 31.2187C63.5927 30.2991 63.2269 29.4174 62.5766 28.7671C61.9263 28.1168 61.0446 27.751 60.125 27.75ZM60.125 32.375C59.8963 32.375 59.6728 32.3072 59.4826 32.1801C59.2925 32.0531 59.1443 31.8725 59.0568 31.6612C58.9693 31.4499 58.9464 31.2175 58.991 30.9932C59.0356 30.7689 59.1457 30.5629 59.3074 30.4012C59.4691 30.2395 59.6751 30.1293 59.8994 30.0847C60.1237 30.0401 60.3562 30.063 60.5675 30.1505C60.7788 30.238 60.9593 30.3862 61.0864 30.5764C61.2134 30.7665 61.2812 30.9901 61.2812 31.2187C61.2809 31.5253 61.159 31.8192 60.9422 32.036C60.7254 32.2527 60.4315 32.3747 60.125 32.375Z" fill="#737373"/>
<path d="M60.125 35.8438C59.4389 35.8438 58.7683 36.0472 58.1979 36.4283C57.6274 36.8095 57.1828 37.3512 56.9203 37.9851C56.6578 38.6189 56.5891 39.3163 56.7229 39.9892C56.8567 40.6621 57.1871 41.2802 57.6722 41.7653C58.1573 42.2504 58.7754 42.5808 59.4483 42.7146C60.1212 42.8484 60.8186 42.7797 61.4524 42.5172C62.0863 42.2547 62.628 41.8101 63.0092 41.2396C63.3903 40.6692 63.5937 39.9986 63.5937 39.3125C63.5927 38.3928 63.2269 37.5112 62.5766 36.8609C61.9263 36.2106 61.0446 35.8448 60.125 35.8438ZM60.125 40.4688C59.8963 40.4688 59.6728 40.4009 59.4826 40.2739C59.2925 40.1468 59.1443 39.9663 59.0568 39.755C58.9693 39.5437 58.9464 39.3112 58.991 39.0869C59.0356 38.8626 59.1457 38.6566 59.3074 38.4949C59.4691 38.3332 59.6751 38.2231 59.8994 38.1785C60.1237 38.1339 60.3562 38.1568 60.5675 38.2443C60.7788 38.3318 60.9593 38.48 61.0864 38.6701C61.2134 38.8603 61.2812 39.0838 61.2812 39.3125C61.2809 39.6191 61.159 39.913 60.9422 40.1297C60.7254 40.3465 60.4315 40.4684 60.125 40.4688Z" fill="#737373"/>
<path d="M40.4688 25.4375H38.1562C37.8496 25.4375 37.5555 25.5593 37.3387 25.7762C37.1218 25.993 37 26.2871 37 26.5938C37 26.9004 37.1218 27.1945 37.3387 27.4113C37.5555 27.6282 37.8496 27.75 38.1562 27.75H40.4688C40.7754 27.75 41.0695 27.6282 41.2863 27.4113C41.5032 27.1945 41.625 26.9004 41.625 26.5938C41.625 26.2871 41.5032 25.993 41.2863 25.7762C41.0695 25.5593 40.7754 25.4375 40.4688 25.4375Z" fill="#737373"/>
<path d="M46.25 25.4375H45.0938C44.7871 25.4375 44.493 25.5593 44.2762 25.7762C44.0593 25.993 43.9375 26.2871 43.9375 26.5938C43.9375 26.9004 44.0593 27.1945 44.2762 27.4113C44.493 27.6282 44.7871 27.75 45.0938 27.75H46.25C46.5567 27.75 46.8508 27.6282 47.0676 27.4113C47.2844 27.1945 47.4062 26.9004 47.4062 26.5938C47.4062 26.2871 47.2844 25.993 47.0676 25.7762C46.8508 25.5593 46.5567 25.4375 46.25 25.4375Z" fill="#737373"/>
<path d="M70.5312 27.75H68.2188V26.5938C68.217 25.061 67.6074 23.5915 66.5236 22.5077C65.4397 21.4239 63.9703 20.8142 62.4375 20.8125H61.2812V12.7188C61.2812 12.4121 61.1594 12.118 60.9426 11.9012C60.7258 11.6843 60.4317 11.5625 60.125 11.5625H57.8125V10.4062C57.8125 10.0996 57.6907 9.8055 57.4738 9.58866C57.257 9.37182 56.9629 9.25 56.6562 9.25C56.3496 9.25 56.0555 9.37182 55.8387 9.58866C55.6218 9.8055 55.5 10.0996 55.5 10.4062V11.5625H53.1875C52.8808 11.5625 52.5867 11.6843 52.3699 11.9012C52.1531 12.118 52.0312 12.4121 52.0312 12.7188V20.8125H30.6406C28.9546 20.8144 27.3381 21.485 26.1459 22.6772C24.9537 23.8694 24.2831 25.4858 24.2812 27.1719V32.375C24.2825 33.4001 24.6237 34.3958 25.2514 35.2062C25.8791 36.0166 26.7578 36.596 27.75 36.8536V40.4688C27.75 40.7754 27.8718 41.0695 28.0887 41.2863C28.3055 41.5032 28.5996 41.625 28.9062 41.625C29.2129 41.625 29.507 41.5032 29.7238 41.2863C29.9407 41.0695 30.0625 40.7754 30.0625 40.4688V37H31.9181C32.5983 36.9985 33.2688 36.8394 33.8772 36.5353C34.4856 36.2312 35.0152 35.7903 35.4246 35.2471L36.0172 34.4562C36.5032 33.8115 37.1319 33.288 37.8541 32.9269C38.5763 32.5658 39.3723 32.3769 40.1797 32.375H46.8281C48.2081 32.375 49.5315 32.9232 50.5073 33.899C51.4831 34.8747 52.0312 36.1982 52.0312 37.5781C52.0312 38.9581 51.4831 40.2815 50.5073 41.2573C49.5315 42.2331 48.2081 42.7812 46.8281 42.7812H25.4375C24.5178 42.7823 23.6362 43.1481 22.9859 43.7984C22.3356 44.4487 21.9698 45.3303 21.9688 46.25V55.5C21.9688 55.8067 22.0906 56.1008 22.3074 56.3176C22.5242 56.5344 22.8183 56.6562 23.125 56.6562V60.125C23.125 60.4317 23.2468 60.7258 23.4637 60.9426C23.6805 61.1594 23.9746 61.2812 24.2812 61.2812H31.2188C31.5254 61.2812 31.8195 61.1594 32.0363 60.9426C32.2532 60.7258 32.375 60.4317 32.375 60.125V56.6562H56.6562V60.125C56.6562 60.4317 56.7781 60.7258 56.9949 60.9426C57.2117 61.1594 57.5058 61.2812 57.8125 61.2812H64.75C65.0567 61.2812 65.3508 61.1594 65.5676 60.9426C65.7844 60.7258 65.9062 60.4317 65.9062 60.125V56.6562H67.0625C67.3692 56.6562 67.6633 56.5344 67.8801 56.3176C68.0969 56.1008 68.2188 55.8067 68.2188 55.5V46.25H70.5312C70.8379 46.25 71.132 46.1282 71.3488 45.9113C71.5657 45.6945 71.6875 45.4004 71.6875 45.0938V39.3125C71.6875 39.0058 71.5657 38.7117 71.3488 38.4949C71.132 38.2781 70.8379 38.1562 70.5312 38.1562H68.2188V35.8438H70.5312C70.8379 35.8438 71.132 35.7219 71.3488 35.5051C71.5657 35.2883 71.6875 34.9942 71.6875 34.6875V28.9062C71.6875 28.5996 71.5657 28.3055 71.3488 28.0887C71.132 27.8718 70.8379 27.75 70.5312 27.75ZM30.0625 34.6875H28.9062C28.2932 34.6868 27.7054 34.4429 27.2719 34.0094C26.8383 33.5759 26.5945 32.9881 26.5938 32.375V27.1719C26.595 26.1991 26.9461 25.2591 27.5829 24.5237C28.2198 23.7883 29.0998 23.3065 30.0625 23.1662V34.6875ZM28.9062 45.0938H40.4688V49.7188H28.9062V45.0938ZM30.0625 58.9688H25.4375V56.6562H30.0625V58.9688ZM46.25 54.3438H24.2812V46.25C24.2816 45.9435 24.4035 45.6496 24.6203 45.4328C24.8371 45.216 25.1309 45.0941 25.4375 45.0938H26.5938V50.875C26.5938 51.1817 26.7156 51.4758 26.9324 51.6926C27.1492 51.9094 27.4433 52.0312 27.75 52.0312H41.625C41.9317 52.0312 42.2258 51.9094 42.4426 51.6926C42.6594 51.4758 42.7812 51.1817 42.7812 50.875V45.0938H46.25V54.3438ZM54.3438 13.875H58.9688V16.1875H54.3438V13.875ZM54.3438 18.5H58.9688V20.8125H54.3438V18.5ZM63.5938 58.9688H58.9688V56.6562H63.5938V58.9688ZM65.9062 54.3438H48.5625V44.8895C50.3548 44.4645 51.9285 43.3961 52.9849 41.8871C54.0412 40.3782 54.5066 38.5338 54.2926 36.7043C54.0786 34.8748 53.2001 33.1876 51.824 31.9632C50.4479 30.7388 48.6701 30.0624 46.8281 30.0625H40.1797C39.0134 30.0653 37.8636 30.3381 36.8205 30.8597C35.7773 31.3813 34.8692 32.1374 34.1672 33.0688L33.5746 33.8595C33.2788 34.2514 32.8539 34.5261 32.375 34.6347V23.125H62.4375C63.3572 23.126 64.2388 23.4918 64.8891 24.1421C65.5394 24.7924 65.9052 25.6741 65.9062 26.5938V54.3438ZM69.375 40.4688V43.9375H68.2188V40.4688H69.375ZM69.375 33.5312H68.2188V30.0625H69.375V33.5312Z" fill="#737373"/>
<path d="M62.4375 47.4063H59.9261C59.6868 46.7303 59.2439 46.1451 58.6583 45.7313C58.0728 45.3174 57.3733 45.0952 56.6562 45.0952C55.9392 45.0952 55.2397 45.3174 54.6542 45.7313C54.0686 46.1451 53.6257 46.7303 53.3864 47.4063H52.0312C51.7246 47.4063 51.4305 47.5281 51.2137 47.7449C50.9968 47.9618 50.875 48.2559 50.875 48.5625C50.875 48.8692 50.9968 49.1633 51.2137 49.3801C51.4305 49.5969 51.7246 49.7188 52.0312 49.7188H53.3864C53.6257 50.3947 54.0686 50.9799 54.6542 51.3938C55.2397 51.8076 55.9392 52.0299 56.6562 52.0299C57.3733 52.0299 58.0728 51.8076 58.6583 51.3938C59.2439 50.9799 59.6868 50.3947 59.9261 49.7188H62.4375C62.7442 49.7188 63.0383 49.5969 63.2551 49.3801C63.4719 49.1633 63.5938 48.8692 63.5938 48.5625C63.5938 48.2559 63.4719 47.9618 63.2551 47.7449C63.0383 47.5281 62.7442 47.4063 62.4375 47.4063ZM56.6562 49.7188C56.4276 49.7188 56.204 49.6509 56.0139 49.5239C55.8237 49.3968 55.6755 49.2163 55.588 49.005C55.5005 48.7937 55.4776 48.5612 55.5222 48.3369C55.5668 48.1126 55.677 47.9066 55.8387 47.7449C56.0004 47.5832 56.2064 47.4731 56.4307 47.4285C56.655 47.3839 56.8874 47.4068 57.0987 47.4943C57.31 47.5818 57.4906 47.73 57.6176 47.9201C57.7447 48.1103 57.8125 48.3338 57.8125 48.5625C57.8122 48.8691 57.6902 49.163 57.4735 49.3797C57.2567 49.5965 56.9628 49.7184 56.6562 49.7188Z" fill="#737373"/>
<path d="M9.88088 19.3834C8.33227 19.8973 6.95353 20.8246 5.89362 22.0651C4.8337 23.3057 4.1329 24.8122 3.86693 26.4221L3.4845 28.7166C3.45697 28.8822 3.46583 29.0518 3.51046 29.2137C3.5551 29.3755 3.63444 29.5257 3.74297 29.6538C3.85151 29.7818 3.98663 29.8848 4.13894 29.9553C4.29126 30.0259 4.45712 30.0625 4.625 30.0625H6.2978C6.70583 30.8043 6.89163 31.6479 6.83299 32.4924C6.77435 33.337 6.47374 34.1468 5.96711 34.8251C5.10175 35.9838 4.63188 37.3901 4.62688 38.8363C4.625 40.1294 4.625 41.625 4.625 41.625C4.625 41.9317 4.74682 42.2258 4.96365 42.4426C5.18049 42.6594 5.47459 42.7813 5.78125 42.7813H11.5625V54.3438H9.10547C8.53068 54.3444 7.97963 54.573 7.5732 54.9795C7.16677 55.3859 6.93815 55.9369 6.9375 56.5117V60.125C6.9375 60.4317 7.05932 60.7258 7.27616 60.9426C7.49299 61.1594 7.78709 61.2813 8.09375 61.2813H17.3437C17.6504 61.2813 17.9445 61.1594 18.1613 60.9426C18.3782 60.7258 18.5 60.4317 18.5 60.125V56.5117C18.4993 55.9369 18.2707 55.3859 17.8643 54.9795C17.4579 54.573 16.9068 54.3444 16.332 54.3438H13.875V42.7813H19.6562C19.9629 42.7813 20.257 42.6594 20.4738 42.4426C20.6907 42.2258 20.8125 41.9317 20.8125 41.625V38.8514C20.8095 37.4 20.3389 35.9881 19.4704 34.8251C18.9632 34.1472 18.662 33.3374 18.603 32.4928C18.5439 31.6482 18.7295 30.8044 19.1374 30.0625H20.8125C20.9804 30.0625 21.1463 30.0259 21.2987 29.9553C21.451 29.8847 21.5862 29.7818 21.6947 29.6536C21.8033 29.5255 21.8826 29.3753 21.9272 29.2134C21.9718 29.0515 21.9806 28.8818 21.953 28.7162L21.5706 26.4215C21.257 24.5212 20.3388 22.7728 18.9525 21.436C17.5661 20.0991 15.7854 19.2452 13.875 19.001V18.3011C14.6465 18.0284 15.2967 17.4917 15.7107 16.7859C16.1247 16.0801 16.2759 15.2507 16.1375 14.4442C15.9992 13.6377 15.5802 12.9061 14.9545 12.3787C14.3289 11.8513 13.537 11.562 12.7187 11.562C11.9005 11.562 11.1086 11.8513 10.483 12.3787C9.85734 12.9061 9.43832 13.6377 9.29995 14.4442C9.16158 15.2507 9.31277 16.0801 9.7268 16.7859C10.1408 17.4917 10.791 18.0284 11.5625 18.3011V19.001C10.9909 19.0738 10.4277 19.2019 9.88088 19.3834ZM16.1875 56.6563V58.9688H9.25V56.6563H16.1875ZM12.7187 13.875C12.9474 13.875 13.171 13.9428 13.3611 14.0699C13.5513 14.1969 13.6995 14.3775 13.787 14.5888C13.8745 14.8001 13.8974 15.0325 13.8528 15.2568C13.8082 15.4811 13.698 15.6871 13.5363 15.8488C13.3746 16.0106 13.1686 16.1207 12.9443 16.1653C12.72 16.2099 12.4875 16.187 12.2763 16.0995C12.065 16.012 11.8844 15.8638 11.7574 15.6736C11.6303 15.4835 11.5625 15.2599 11.5625 15.0313C11.5628 14.7247 11.6848 14.4308 11.9015 14.214C12.1183 13.9973 12.4122 13.8753 12.7187 13.875ZM14.8253 21.5772C15.9748 21.9587 16.9982 22.647 17.785 23.5677C18.5718 24.4885 19.092 25.6067 19.2896 26.8016L19.4475 27.75H18.5C18.3097 27.75 18.1223 27.797 17.9545 27.8868C17.7866 27.9766 17.6436 28.1065 17.538 28.2648L17.4053 28.4638C16.6366 29.6195 16.2446 30.9849 16.2831 32.3724C16.3216 33.7598 16.7888 35.1013 17.6204 36.2126C18.1895 36.9748 18.498 37.9002 18.5 38.8514V40.4688H6.9375C6.9375 39.9763 6.9375 39.3895 6.93909 38.8395C6.94233 37.8924 7.25005 36.9714 7.81683 36.2126C8.64155 35.1085 9.10723 33.7778 9.15087 32.4004C9.1945 31.023 8.81398 29.6654 8.06079 28.5114L7.90427 28.2725C7.79911 28.112 7.65569 27.9803 7.48692 27.8891C7.31815 27.7978 7.12934 27.7501 6.9375 27.75H5.98995L6.14792 26.8017C6.3062 25.8522 6.6684 24.9482 7.20957 24.1521C7.75074 23.3559 8.45804 22.6865 9.28275 22.19C10.1075 21.6935 11.03 21.3815 11.9868 21.2758C12.9436 21.17 13.912 21.2728 14.8253 21.5772Z" fill="#737373"/>
</svg>
