<svg width="70" height="69" viewBox="0 0 70 69" fill="none" xmlns="http://www.w3.org/2000/svg">
<g filter="url(#filter0_d)">
<rect x="3.27499" y="3" width="59" height="59" rx="29.5" fill="white"/>
</g>
<path d="M19.9476 33.6133L25.7869 35.7927L28.047 43.0613C28.1917 43.5268 28.7609 43.6989 29.1388 43.39L32.3937 40.7365C32.7349 40.4585 33.2208 40.4447 33.5774 40.7035L39.4481 44.9657C39.8523 45.2595 40.425 45.0381 40.5263 44.5496L44.8269 23.863C44.9376 23.3294 44.4133 22.8844 43.9053 23.0808L19.9408 32.3256C19.3494 32.5537 19.3545 33.391 19.9476 33.6133ZM27.6828 34.6325L39.0949 27.6038C39.3 27.4778 39.511 27.7551 39.3349 27.9185L29.9166 36.6733C29.5856 36.9814 29.372 37.3938 29.3115 37.8415L28.9907 40.219C28.9482 40.5365 28.5023 40.568 28.4147 40.2608L27.1808 35.9252C27.0395 35.4307 27.2454 34.9025 27.6828 34.6325Z" fill="black"/>
<defs>
<filter id="filter0_d" x="0.274994" y="0" width="69" height="69" filterUnits="userSpaceOnUse" color-interpolation-filters="sRGB">
<feFlood flood-opacity="0" result="BackgroundImageFix"/>
<feColorMatrix in="SourceAlpha" type="matrix" values="0 0 0 0 0 0 0 0 0 0 0 0 0 0 0 0 0 0 127 0"/>
<feOffset dx="2" dy="2"/>
<feGaussianBlur stdDeviation="2.5"/>
<feColorMatrix type="matrix" values="0 0 0 0 0 0 0 0 0 0 0 0 0 0 0 0 0 0 0.15 0"/>
<feBlend mode="normal" in2="BackgroundImageFix" result="effect1_dropShadow"/>
<feBlend mode="normal" in="SourceGraphic" in2="effect1_dropShadow" result="shape"/>
</filter>
</defs>
</svg>
