<svg width="70" height="69" viewBox="0 0 70 69" fill="none" xmlns="http://www.w3.org/2000/svg">
<g filter="url(#filter0_d)">
<rect x="3.57501" y="3" width="59" height="59" rx="29.5" fill="white"/>
</g>
<g clip-path="url(#clip0)">
<path d="M43.4326 35.1293L43.4182 35.1159C43.1915 34.9062 42.4971 34.2292 42.263 33.9332C41.9881 33.5641 42.0515 33.3221 42.2575 32.9597C42.5178 32.5016 43.0394 31.7989 43.5914 31.0549C45.3593 28.6726 46.5007 27.0234 46.2658 25.8519L46.1392 25.2262L39.61 25.229C39.5871 25.2907 39.2464 26.7904 37.8087 29.344C36.7661 31.1956 36.0822 31.7772 35.8414 31.8799L35.8041 31.8686C35.7257 31.7715 35.5888 31.5097 35.5325 30.8349C35.4737 30.128 35.5258 29.2721 35.5762 28.4445C35.6352 27.4739 35.686 26.6357 35.5643 26.036L35.366 25.059C35.1264 25.0206 34.2491 24.6815 31.8048 24.6557C29.6886 24.634 29.0669 24.9402 28.7617 25.2102L27.7519 26.103L29.0283 26.5332C29.514 26.697 29.6752 26.886 29.8075 27.8226C29.8938 28.4331 29.939 29.4591 29.8458 30.375C29.7119 31.6883 29.3908 31.9327 29.3742 31.9457C29.3189 31.9268 28.85 31.7212 28.0359 29.9967C27.4712 28.8007 26.9761 27.3859 26.6143 26.3528C26.2003 25.1698 26.2748 25.4216 26.0648 24.8627L19.7481 24.8625L20.1569 25.9219C21.8611 30.3429 23.4246 33.7954 25.5171 36.2752C27.8289 39.0149 30.702 40.4494 34.5721 40.4494H35.35V39.67C35.35 38.9414 35.4101 38.4168 35.5392 38.019C35.618 37.7766 35.7227 37.5763 35.8327 37.3663C35.9959 37.057 36.1556 36.9244 36.2427 36.9047C36.3217 36.8867 36.4606 36.9447 36.6146 37.0598C37.0566 37.39 37.4074 37.8239 37.7789 38.2834C38.3149 38.9465 38.8691 39.6319 39.7484 40.0806C40.2289 40.3258 41.1096 40.4496 41.5943 40.4496C41.7225 40.4496 46.2925 40.4494 46.2982 40.4494L46.2648 39.638C46.2149 38.4247 45.2619 36.9076 43.4326 35.1293ZM41.6245 38.8907H41.6119C41.2777 38.8961 40.6399 38.7863 40.4543 38.6918C39.8697 38.3934 39.4612 37.8879 38.9878 37.3025C38.5723 36.7884 38.1427 36.2569 37.5445 35.8102C37.0608 35.4487 36.6215 35.343 36.2726 35.343C36.1333 35.343 36.0081 35.3598 35.9007 35.3842C35.4958 35.4755 34.9167 35.7674 34.4563 36.6399C34.3264 36.8881 34.1792 37.1692 34.0599 37.5369C33.9349 37.9218 33.8571 38.3494 33.82 38.8696C30.9036 38.7035 28.6278 37.5475 26.7051 35.2689C24.9175 33.1502 23.5111 30.1869 22.0217 26.4206C22.1294 26.4206 24.8298 26.421 24.9892 26.421C25.038 26.5584 25.0907 26.709 25.1466 26.8685C25.5365 27.983 26.0707 29.509 26.7 30.8103C27.6012 32.6739 28.4242 33.505 29.3684 33.505C29.8397 33.505 30.2625 33.3049 30.5908 32.926C31.0589 32.3859 31.3308 31.4945 31.4219 30.2007C31.4938 29.1804 31.427 28.1642 31.348 27.6042C31.2828 27.1435 31.1898 26.6599 30.9629 26.2266C31.9297 26.1829 33.2243 26.2519 34.0445 26.3699C34.119 26.7766 34.0704 27.576 34.0234 28.3495C33.9098 30.2179 33.7925 32.146 34.7796 33.0481C34.9532 33.2069 35.1373 33.2919 35.1426 33.2953L35.6449 33.4498C35.8388 33.3899 36.9616 33.9606 39.0876 30.2431C39.7688 29.0519 40.4031 27.6793 40.7446 26.7829C41.5366 26.7812 44.2349 26.7843 44.5519 26.7847C44.1028 27.7749 43.0386 29.1873 42.343 30.1248C41.7365 30.9419 41.2129 31.6475 40.9056 32.1882C40.3348 33.1927 40.4308 34.0879 41.0253 34.8776L41.0346 34.8898C41.3664 35.3129 42.1858 36.0964 42.3557 36.2543C43.5869 37.4519 44.1802 38.3122 44.4626 38.8905H41.6245V38.8907Z" fill="black"/>
</g>
<defs>
<filter id="filter0_d" x="0.575012" y="0" width="69" height="69" filterUnits="userSpaceOnUse" color-interpolation-filters="sRGB">
<feFlood flood-opacity="0" result="BackgroundImageFix"/>
<feColorMatrix in="SourceAlpha" type="matrix" values="0 0 0 0 0 0 0 0 0 0 0 0 0 0 0 0 0 0 127 0"/>
<feOffset dx="2" dy="2"/>
<feGaussianBlur stdDeviation="2.5"/>
<feColorMatrix type="matrix" values="0 0 0 0 0 0 0 0 0 0 0 0 0 0 0 0 0 0 0.15 0"/>
<feBlend mode="normal" in2="BackgroundImageFix" result="effect1_dropShadow"/>
<feBlend mode="normal" in="SourceGraphic" in2="effect1_dropShadow" result="shape"/>
</filter>
<clipPath id="clip0">
<rect width="26.55" height="26.55" fill="white" transform="translate(19.8 19.225)"/>
</clipPath>
</defs>
</svg>
