<svg width="69" height="69" viewBox="0 0 69 69" fill="none" xmlns="http://www.w3.org/2000/svg">
<g filter="url(#filter0_d)">
<rect x="3" y="3" width="59" height="59" rx="29.5" fill="white"/>
</g>
<path d="M44.5669 33.0446C44.5669 39.8624 38.9976 45.3892 32.1263 45.3892C29.9449 45.3892 27.8956 44.8316 26.1126 43.8532L19.225 46.0418L21.4706 39.4186C20.3378 37.5585 19.6854 35.3769 19.6854 33.0446C19.6854 26.2268 25.2552 20.7 32.1263 20.7C38.9981 20.7 44.5669 26.2268 44.5669 33.0446ZM32.1263 22.666C26.3585 22.666 21.6668 27.3218 21.6668 33.0446C21.6668 35.3155 22.4071 37.4186 23.6593 39.1294L22.3525 42.9839L26.372 41.7064C28.0234 42.7908 30.0018 43.4232 32.1265 43.4232C37.8935 43.4232 42.586 38.7679 42.586 33.0451C42.586 27.3224 37.8938 22.666 32.1263 22.666ZM38.4085 35.8876C38.3316 35.7618 38.1286 35.6858 37.824 35.5346C37.5187 35.3833 36.0191 34.651 35.7403 34.5504C35.4607 34.4496 35.2568 34.399 35.0538 34.7017C34.8508 35.0046 34.2662 35.6858 34.088 35.8876C33.91 36.0901 33.7324 36.1154 33.4271 35.964C33.1225 35.8128 32.1401 35.4929 30.9752 34.4623C30.0688 33.6604 29.4566 32.6704 29.2787 32.3671C29.101 32.0644 29.2601 31.9008 29.4124 31.7502C29.5498 31.6145 29.7177 31.3968 29.87 31.2202C30.0229 31.0434 30.0736 30.9176 30.1747 30.7154C30.2769 30.5135 30.2259 30.3369 30.1493 30.1852C30.0733 30.034 29.4628 28.545 29.2089 27.939C28.9549 27.3336 28.7012 27.4345 28.5229 27.4345C28.3453 27.4345 28.1417 27.4091 27.9384 27.4091C27.7351 27.4091 27.4045 27.4849 27.1249 27.7875C26.8456 28.0905 26.058 28.8226 26.058 30.3113C26.058 31.8003 27.1502 33.2389 27.3031 33.4405C27.4555 33.6421 29.4121 36.7969 32.5123 38.0085C35.6127 39.2195 35.6127 38.8155 36.1719 38.7648C36.7306 38.7144 37.9757 38.033 38.2308 37.3268C38.4843 36.6195 38.4842 36.0138 38.4085 35.8876Z" fill="black"/>
<defs>
<filter id="filter0_d" x="0" y="0" width="69" height="69" filterUnits="userSpaceOnUse" color-interpolation-filters="sRGB">
<feFlood flood-opacity="0" result="BackgroundImageFix"/>
<feColorMatrix in="SourceAlpha" type="matrix" values="0 0 0 0 0 0 0 0 0 0 0 0 0 0 0 0 0 0 127 0"/>
<feOffset dx="2" dy="2"/>
<feGaussianBlur stdDeviation="2.5"/>
<feColorMatrix type="matrix" values="0 0 0 0 0 0 0 0 0 0 0 0 0 0 0 0 0 0 0.15 0"/>
<feBlend mode="normal" in2="BackgroundImageFix" result="effect1_dropShadow"/>
<feBlend mode="normal" in="SourceGraphic" in2="effect1_dropShadow" result="shape"/>
</filter>
</defs>
</svg>
